<svg width="23" height="18" viewBox="0 0 23 18" fill="none" xmlns="http://www.w3.org/2000/svg">
<path d="M22.0143 12.457C22.2757 12.457 22.5264 12.5353 22.7113 12.6747C22.8962 12.8141 23 13.0031 23 13.2002V14.1911C23 15.1767 22.4807 16.1219 21.5565 16.8187C20.6322 17.5156 19.3786 17.9071 18.0714 17.9071H4.92857C3.62143 17.9071 2.36783 17.5156 1.44355 16.8187C0.519259 16.1219 0 15.1767 0 14.1911V13.2042C0 13.0071 0.103852 12.818 0.288709 12.6787C0.473566 12.5393 0.724287 12.461 0.985714 12.461C1.24714 12.461 1.49786 12.5393 1.68272 12.6787C1.86758 12.818 1.97143 13.0071 1.97143 13.2042V14.1911C1.97143 14.7825 2.28298 15.3496 2.83756 15.7677C3.39213 16.1858 4.14429 16.4207 4.92857 16.4207H18.0714C18.8557 16.4207 19.6079 16.1858 20.1624 15.7677C20.717 15.3496 21.0286 14.7825 21.0286 14.1911V13.2002C21.0286 13.0031 21.1324 12.8141 21.3173 12.6747C21.5021 12.5353 21.7529 12.457 22.0143 12.457Z" fill="white"/>
<path d="M12.4707 0.794196C12.4707 0.583562 12.3685 0.381555 12.1864 0.232615C12.0044 0.0836739 11.7575 0 11.5 0C11.2425 0 10.9956 0.0836739 10.8136 0.232615C10.6315 0.381555 10.5293 0.583562 10.5293 0.794196V8.17493H6.2839C6.10211 8.32384 6 8.5257 6 8.73616C6 8.94662 6.10211 9.14848 6.2839 9.29739L10.814 13.0036C10.996 13.1524 11.2428 13.2359 11.5 13.2359C11.7572 13.2359 12.004 13.1524 12.186 13.0036L16.7161 9.29739C16.8979 9.14848 17 8.94662 17 8.73616C17 8.5257 16.8979 8.32384 16.7161 8.17493H12.4707V0.794196Z" fill="white"/>
</svg>
