<svg width="18" height="18" viewBox="0 0 18 18" fill="none" xmlns="http://www.w3.org/2000/svg">
<path d="M0 13.75C0 13.3358 0.335786 13 0.75 13C1.16421 13 1.5 13.3358 1.5 13.75V16H16V13.75C16 13.3358 16.3358 13 16.75 13C17.1642 13 17.5 13.3358 17.5 13.75V17.5H0V13.75Z" fill="#0095FF"/>
<path d="M8 12.75V0.75C8 0.335786 8.33579 0 8.75 0C9.16421 0 9.5 0.335786 9.5 0.75V12.75C9.5 13.1642 9.16421 13.5 8.75 13.5C8.33579 13.5 8 13.1642 8 12.75Z" fill="#0095FF"/>
<path d="M8.22005 13.2806L4.21978 9.28033C3.92689 8.98744 3.92689 8.51256 4.21978 8.21967C4.51268 7.92678 4.98755 7.92678 5.28044 8.21967L9.28071 12.2199C9.57334 12.5128 9.57351 12.9878 9.28071 13.2806C8.9879 13.5734 8.51296 13.5732 8.22005 13.2806Z" fill="#0095FF"/>
<path d="M9.27995 13.2806L13.2802 9.28033C13.5731 8.98744 13.5731 8.51256 13.2802 8.21967C12.9873 7.92678 12.5124 7.92678 12.2196 8.21967L8.21929 12.2199C7.92666 12.5128 7.92649 12.9878 8.21929 13.2806C8.5121 13.5734 8.98704 13.5732 9.27995 13.2806Z" fill="#0095FF"/>
</svg>
