<svg width="243" height="32" viewBox="0 0 243 32" fill="none" xmlns="http://www.w3.org/2000/svg">
<g clip-path="url(#clip0_692_35)">
<path d="M102.989 4.49076C102.064 2.67546 100.447 1.27848 98.5627 0.656751C96.848 0.0925872 95.5564 0.0273438 94.8388 0.0273438C93.4414 0.0273438 91.9646 0.130966 90.1329 0.898536C89.2416 1.27081 88.4182 1.7467 87.6855 2.29935C87.0359 1.81962 86.2654 1.38211 85.2759 0.929239C83.9993 0.342048 82.3866 0.0311816 80.7437 0.0618844C79.4898 0.0849115 78.5343 0.188533 77.1067 0.656751C75.2258 1.27465 73.53 2.74454 72.6765 4.49076C72.1288 5.59223 71.8984 6.67834 71.8984 8.12137V31.4747H77.3068V8.12521C77.3068 6.28688 77.9791 5.56152 78.3039 5.21228C79.0895 4.36412 80.113 3.8959 81.1856 3.8959C82.2582 3.8959 83.3157 4.37563 84.0673 5.20844C84.3884 5.5692 85.0606 6.31374 85.0606 8.13672V31.4709H90.4615V8.14056C90.4615 7.4651 90.5332 6.46726 91.1526 5.62293C91.4283 5.21996 92.4858 3.89974 94.4838 3.89974C95.5526 3.89974 96.5761 4.36411 97.3655 5.21612C98.355 6.27536 98.3777 7.69921 98.3588 8.14056V31.4747H103.771V8.12905C103.771 8.04845 103.854 6.17174 102.993 4.49076H102.989Z" fill="#6D6F71"/>
<path d="M13.3624 0.654867C11.7383 0.121405 10.7564 0.0292969 9.2834 0.0292969C7.81044 0.0292969 6.82847 0.121405 5.20444 0.654867C3.32737 1.27276 1.63158 2.74266 0.778023 4.48888C0.234162 5.59034 0 6.67262 0 8.11949V31.4728H5.40462V8.11949C5.40462 7.83165 5.42728 7.4517 5.45749 7.24062C5.61612 6.0931 6.19019 5.44834 6.40547 5.20656C7.1495 4.37374 8.19946 3.89401 9.2834 3.89401C10.3711 3.89401 11.4588 4.40445 12.1651 5.20656C12.4182 5.4944 12.9545 6.08926 13.1131 7.24062C13.1433 7.4517 13.1622 7.83165 13.1622 8.11949V31.4728H18.5706V8.11949C18.5706 6.67262 18.3402 5.59034 17.7926 4.48888C16.939 2.74266 15.2432 1.27276 13.3624 0.654867Z" fill="#6D6F71"/>
<path d="M33.4658 27.3493C31.6265 27.3493 30.1271 25.8257 30.1271 23.9528V19.3052C30.1271 18.3917 30.5841 17.8237 31.3168 17.8237H41.1403V13.6942H31.3168C30.6597 13.6942 30.1271 13.1492 30.1271 12.4853V8.12166C30.1271 6.24879 31.6265 4.72516 33.4658 4.72516H42.2167V0.591797H31.0487C28.0008 0.591797 24.7188 2.60667 24.7188 7.02403V25.0427C24.7188 28.1399 26.6978 31.475 31.0487 31.475H42.4849V27.3493H33.4658Z" fill="#6D6F71"/>
<path d="M127.691 4.48888C126.837 2.74266 125.138 1.27276 123.261 0.654867C121.641 0.121405 120.655 0.0292969 119.186 0.0292969C117.716 0.0292969 116.731 0.121405 115.107 0.654867C113.23 1.27276 111.53 2.74266 110.676 4.48888C110.133 5.59034 109.898 6.67262 109.898 8.11949V31.4728H115.303V20.6577C115.311 19.9784 115.824 19.4642 116.5 19.4642H121.863C122.543 19.4642 123.061 19.9823 123.061 20.6693V31.4766H128.465V8.11949C128.465 6.67262 128.231 5.59034 127.687 4.48888H127.691ZM123.061 8.11949V13.8532C123.061 14.7628 122.6 15.3308 121.863 15.3308H116.5C115.775 15.3308 115.318 14.7743 115.303 13.8801V8.11565C115.303 7.82781 115.326 7.4517 115.352 7.23678C115.511 6.08543 116.085 5.44067 116.3 5.20272C117.044 4.36991 118.094 3.89017 119.182 3.89017C120.266 3.89017 121.32 4.36991 122.086 5.22958C122.275 5.44067 122.849 6.08543 123.008 7.23678C123.038 7.4517 123.061 7.83165 123.061 8.11565V8.11949Z" fill="#6D6F71"/>
<path d="M65.1091 4.46342C64.1763 2.59055 62.3596 1.10914 60.2484 0.502758C58.9038 0.111298 58.0805 0 56.5849 0C55.0893 0 54.2659 0.111298 52.9214 0.498921C50.8139 1.1053 48.9973 2.58671 48.0606 4.45958C47.6943 5.19261 47.4563 6.04462 47.3506 6.99256C47.2108 8.25522 47.0938 12.3809 47.0938 16C47.0938 19.6191 47.2335 23.929 47.3506 25.0074C47.4563 25.9515 47.6943 26.8036 48.0606 27.5404C48.9935 29.4133 50.8101 30.8947 52.9214 31.5011C54.2659 31.8887 55.0893 32 56.5849 32C58.0805 32 58.9038 31.8887 60.2484 31.5011C62.3558 30.8947 64.1725 29.4133 65.1091 27.5404C65.4755 26.8074 65.7172 25.9554 65.8192 25.0074C65.94 23.906 66.0798 19.8225 66.0798 16C66.0798 12.1775 65.9438 8.09403 65.8192 6.99256C65.7134 6.04845 65.4755 5.19645 65.1091 4.45958V4.46342ZM56.5849 28.1353C55.5576 28.1353 54.5756 27.7131 53.8202 26.9417C53.1329 26.2394 52.7779 24.8501 52.6834 23.8676C52.6079 23.1039 52.6041 20.7167 52.5966 17.7002V16.0038V14.3037C52.6041 11.2871 52.6079 8.90381 52.6834 8.13624C52.7779 7.15759 53.1329 5.76445 53.8202 5.06213C54.5756 4.29072 55.5576 3.86855 56.5849 3.86855C57.6122 3.86855 58.5941 4.29456 59.3495 5.06213C60.0369 5.76445 60.3919 7.15759 60.4863 8.13624C60.5619 8.89998 60.5656 11.2833 60.5732 14.3037V16V17.7002C60.5656 20.7206 60.5619 23.1039 60.4863 23.8676C60.3919 24.8462 60.0369 26.2394 59.3495 26.9417C58.5941 27.7131 57.6122 28.1353 56.5849 28.1353Z" fill="#6D6F71"/>
<path d="M133.507 25.168C131.725 25.168 130.297 26.6187 130.297 28.4301C130.297 30.2416 131.725 31.6923 133.507 31.6923C135.29 31.6923 136.717 30.2416 136.717 28.4378V28.4301C136.717 26.6187 135.29 25.168 133.507 25.168ZM133.507 31.2394C131.981 31.2394 130.746 29.9845 130.746 28.4417V28.434C130.746 26.8835 131.981 25.6285 133.507 25.6285C135.033 25.6285 136.268 26.8835 136.268 28.434C136.268 29.9845 135.033 31.2394 133.507 31.2394Z" fill="#6D6F71"/>
<path d="M134.222 28.5787L134.113 28.5327L134.226 28.4943C134.449 28.4137 134.827 28.1911 134.827 27.577C134.827 26.8325 134.354 26.5293 133.203 26.5293H132.273V30.3518H133.014V28.8128H133.339C133.573 28.8128 133.739 28.8857 133.939 29.2772C134.067 29.5151 134.237 29.9335 134.385 30.3518H135.223C135.053 29.9258 134.755 29.2465 134.611 28.9625C134.558 28.8589 134.438 28.6747 134.226 28.5825L134.222 28.5787ZM133.558 28.2755H133.01V27.1165H133.316C133.777 27.1165 134.064 27.2124 134.064 27.6883C134.064 28.0452 133.863 28.2755 133.558 28.2755Z" fill="#6D6F71"/>
<path d="M242.219 4.48693C241.29 2.67162 239.678 1.27465 237.789 0.656751C236.075 0.0925872 234.783 0.0273438 234.065 0.0273438C232.668 0.0273438 231.191 0.134804 229.359 0.898536C228.464 1.27081 227.645 1.7467 226.912 2.29935C226.259 1.81962 225.492 1.38211 224.502 0.929239C223.226 0.342048 221.613 0.0311816 219.97 0.0618844C218.713 0.0849115 217.761 0.188533 216.333 0.656751C214.456 1.27465 212.757 2.74454 211.903 4.49076C211.359 5.59223 211.125 6.67834 211.125 8.12137V31.4747H216.53V8.12521C216.53 6.28688 217.202 5.56536 217.527 5.21228C218.312 4.36412 219.336 3.8959 220.408 3.8959C221.489 3.8959 222.539 4.37563 223.29 5.20844C223.615 5.5692 224.287 6.31374 224.287 8.13672V31.4709H229.688V8.13672C229.688 7.46126 229.76 6.46726 230.379 5.61909C230.655 5.21612 231.712 3.8959 233.707 3.8959C234.775 3.8959 235.799 4.36412 236.588 5.21228C237.574 6.27153 237.6 7.69537 237.582 8.13672V31.4709H242.99V8.12905C242.99 8.04845 243.073 6.17174 242.212 4.48693H242.219Z" fill="#D22615"/>
<path d="M204.214 4.48686C203.361 2.74064 201.665 1.27074 199.784 0.652845C198.16 0.119384 197.174 0.0234375 195.705 0.0234375C194.236 0.0234375 193.25 0.115546 191.63 0.652845C189.749 1.27074 188.053 2.74064 187.2 4.48686C186.652 5.58832 186.422 6.67443 186.422 8.11747V31.4708H191.826V20.6557C191.834 19.9764 192.348 19.4622 193.024 19.4622H198.387C199.067 19.4622 199.584 19.9803 199.584 20.6672V31.4708H204.989V8.11747C204.989 6.67443 204.755 5.58832 204.211 4.48686H204.214ZM199.588 8.1213V13.8551C199.588 14.7685 199.127 15.3326 198.391 15.3326H193.028C192.302 15.3326 191.842 14.7761 191.83 13.8819V8.1213C191.83 7.83346 191.853 7.45352 191.879 7.2386C192.038 6.08724 192.612 5.44248 192.827 5.20454C193.571 4.37172 194.621 3.89199 195.709 3.89199C196.797 3.89199 197.847 4.37172 198.613 5.2314C198.802 5.44248 199.376 6.08724 199.539 7.2386C199.569 7.45352 199.592 7.83346 199.592 8.1213H199.588Z" fill="#D22615"/>
<path d="M179.621 4.45958C178.688 2.58671 176.871 1.1053 174.764 0.498921C173.419 0.111298 172.596 0 171.1 0C169.605 0 168.782 0.111298 167.437 0.498921C165.33 1.1053 163.513 2.58671 162.576 4.45958C162.21 5.19261 161.972 6.04462 161.866 6.99256C161.726 8.25522 161.609 12.3809 161.609 16C161.609 19.6191 161.749 23.929 161.866 25.0074C161.972 25.9515 162.21 26.8036 162.576 27.5404C163.509 29.4133 165.326 30.8947 167.437 31.5011C168.782 31.8887 169.601 32 171.1 32C172.6 32 173.419 31.8887 174.764 31.5011C176.871 30.8947 178.688 29.4133 179.621 27.5404C179.987 26.8036 180.229 25.9554 180.331 25.0074C180.452 23.906 180.592 19.8225 180.592 16C180.592 12.1775 180.456 8.09403 180.331 6.99256C180.225 6.04845 179.987 5.19645 179.621 4.45958ZM171.1 28.1314C170.073 28.1314 169.091 27.7054 168.336 26.9379C167.648 26.2355 167.293 24.8462 167.199 23.8638C167.124 23.1 167.12 20.7129 167.112 17.6963V16V14.2998C167.12 11.2794 167.127 8.89614 167.199 8.13241C167.293 7.15375 167.648 5.76061 168.336 5.05829C169.091 4.28688 170.073 3.86472 171.1 3.86472C172.128 3.86472 173.11 4.29072 173.865 5.05829C174.552 5.75678 174.908 7.14992 175.002 8.13241C175.077 8.89614 175.081 11.2794 175.089 14.2998V15.9962V17.6963C175.081 20.7129 175.077 23.1 175.002 23.8638C174.908 24.8424 174.552 26.2355 173.865 26.9379C173.11 27.7093 172.128 28.1314 171.1 28.1314Z" fill="#D22615"/>
<path d="M139.227 25.0389V7.02403C139.227 2.60283 142.509 0.591797 145.557 0.591797H156.725V4.72516H147.974C146.131 4.72516 144.635 6.24879 144.635 8.12166V12.4853C144.635 13.1531 145.167 13.6942 145.825 13.6942H155.648V17.8237H145.825C145.092 17.8237 144.635 18.3917 144.635 19.309V31.475H139.227V25.0427V25.0389Z" fill="#D22615"/>
</g>
<defs>
<clipPath id="clip0_692_35">
<rect width="243" height="32" fill="white"/>
</clipPath>
</defs>
</svg>
