<?xml version="1.0" encoding="utf-8"?>
<!-- Generator: Adobe Illustrator 24.2.3, SVG Export Plug-In . SVG Version: 6.00 Build 0)  -->
<svg version="1.1" id="レイヤー_1" xmlns="http://www.w3.org/2000/svg" xmlns:xlink="http://www.w3.org/1999/xlink" x="0px"
	 y="0px" viewBox="0 0 181.9 36.7" style="enable-background:new 0 0 181.9 36.7;" xml:space="preserve">
<style type="text/css">
	.st0{fill:#FFFFFF;stroke:#221714;stroke-miterlimit:10;}
	.st1{fill:#040000;}
	.st2{fill:#FFFFFF;}
	.st3{fill:none;stroke:#221714;stroke-width:0.765;stroke-linecap:round;stroke-linejoin:round;stroke-miterlimit:10;}
</style>
<g>
	<rect x="1.5" y="1.7" class="st0" width="178.9" height="34"/>
	<g>
		<g>
			<path class="st1" d="M49.5,15.4l0-1.7c0-0.5,0-0.9-0.1-1.2c0.7,0,1.3,0.1,1.8,0.3c0.2,0.1,0.3,0.1,0.3,0.3c0,0.1,0,0.1-0.1,0.2
				c-0.1,0.2-0.2,0.4-0.2,0.6c0,0.3-0.1,0.7-0.1,1.2c0.5-0.1,1.2-0.3,1.9-0.5c0,0,0.1,0,0.1,0c0.1,0,0.1,0.1,0.2,0.2
				c0.1,0.4,0.1,0.8,0.1,1.2c0,0.1-0.1,0.2-0.2,0.2c-0.8,0.3-1.5,0.4-2.1,0.6l0,2.2c1.3-0.6,2.6-0.8,3.7-0.8c1,0,1.8,0.3,2.4,0.9
				c0.5,0.5,0.8,1.2,0.8,2.1c0,1-0.3,1.8-1,2.3c-0.6,0.5-1.3,0.7-2.3,0.7c-0.4,0-0.9,0-1.2-0.1c-0.2-0.1-0.3-0.2-0.3-0.5
				c0-0.5-0.2-0.9-0.5-1.3c0.5,0.2,1.2,0.3,1.9,0.3c0.5,0,0.9-0.1,1.2-0.4c0.3-0.3,0.4-0.7,0.4-1.1c0-0.5-0.2-0.9-0.5-1.2
				c-0.3-0.2-0.7-0.3-1.2-0.3c-1,0-2.1,0.3-3.4,1c0,0.6,0,1.2,0.1,1.8c0.1,1.2,0.1,1.8,0.1,1.9c0,0.2,0,0.3,0,0.3
				c0,0.1-0.1,0.1-0.2,0.2c-0.4,0.1-0.7,0.2-1.1,0.2c-0.1,0-0.2-0.1-0.4-0.3c-0.4-0.6-1.2-1.3-2.1-1.9c-0.2,0.1-0.3,0.2-0.5,0.3
				C46.8,23,46.7,23,46.6,23c-0.1,0-0.2-0.1-0.3-0.2c-0.2-0.2-0.4-0.7-0.7-1.4c0.5-0.1,0.9-0.3,1.4-0.5c0.5-0.2,1.3-0.7,2.4-1.4
				v-2.6c-1,0.1-1.8,0.1-2.5,0.1c-0.2,0-0.3-0.1-0.4-0.3c0-0.2-0.1-0.7-0.2-1.3c0.3,0,0.7,0.1,1.2,0.1C48,15.5,48.6,15.4,49.5,15.4z
				 M49.5,21c-0.6,0.4-1.1,0.8-1.5,1c0.5,0.3,1,0.5,1.4,0.7c0,0,0.1,0,0.1,0c0,0,0.1,0,0.1-0.1c0,0,0,0,0,0c0-0.2,0-0.4,0-0.8
				C49.5,21.4,49.5,21.2,49.5,21z M54.5,15.4c0.2-0.4,0.4-0.7,0.7-1.2c0.1-0.1,0.1-0.2,0.2-0.2c0,0,0,0,0.1,0c1.3,0.4,2.4,1,3.2,1.8
				c0.1,0.1,0.1,0.1,0.1,0.2c0,0,0,0.1-0.1,0.1c-0.1,0.1-0.2,0.3-0.4,0.6c-0.2,0.3-0.3,0.4-0.4,0.5c0,0-0.1,0.1-0.2,0.1
				c-0.1,0-0.1,0-0.1-0.1C56.9,16.4,55.8,15.8,54.5,15.4z"/>
			<path class="st1" d="M64.9,12.1l1.5,0c0.1,0,0.1,0.1,0.1,0.2l0,1.5v1.9l0,1.5c0,0.1,0,0.2-0.1,0.2l-1.5,0h-2.4V22l0,3.2
				c0,0.1,0,0.1,0,0.1c0,0-0.1,0-0.1,0h-1.3c-0.1,0-0.1,0-0.1,0c0,0,0-0.1,0-0.1l0-3.2v-6.5l0-3.2c0-0.1,0-0.1,0-0.1s0.1,0,0.1,0
				l1.8,0H64.9z M65.1,13.3h-2.5v0.9h2.5V13.3z M65.1,16.2v-1h-2.5v1H65.1z M65.6,23.9h-1.1c-0.1,0-0.1,0-0.1,0s0-0.1,0-0.1l0-2.4
				v-1.1l0-1.6c0-0.1,0-0.1,0-0.1s0.1,0,0.1,0l1.6,0h2l1.6,0c0.1,0,0.1,0,0.1,0s0,0.1,0,0.1l0,1.3v1.2l0,2.3c0,0.1,0,0.1,0,0.2
				s-0.1,0-0.1,0h-1.1c-0.1,0-0.1,0-0.2,0c0,0,0-0.1,0-0.1v-0.5h-2.6v0.8c0,0.1,0,0.1,0,0.1C65.7,23.9,65.7,23.9,65.6,23.9z
				 M65.8,19.8v1.9h2.6v-1.9H65.8z M70,23.6c0.4,0,0.8,0.1,1.2,0.1c0.3,0,0.4,0,0.5-0.1c0.1-0.1,0.1-0.2,0.1-0.4v-5.8h-2.4l-1.6,0
				c-0.1,0-0.1,0-0.2,0c0,0,0-0.1,0-0.1l0-1.3v-2.2l0-1.4c0-0.1,0-0.1,0-0.1c0,0,0.1,0,0.1,0l1.6,0h2.2l1.6,0c0.1,0,0.1,0,0.1,0
				s0,0.1,0,0.1l0,2v6.2l0.1,3c0,0.4,0,0.7-0.1,0.9c-0.1,0.2-0.2,0.4-0.3,0.5c-0.2,0.2-0.4,0.3-0.7,0.3c-0.3,0.1-0.7,0.1-1.4,0.1
				c-0.3,0-0.4,0-0.4-0.1c0,0-0.1-0.2-0.1-0.4C70.2,24.3,70.1,23.9,70,23.6z M71.8,13.3h-2.7v0.9h2.7V13.3z M69.1,16.2h2.7v-1h-2.7
				V16.2z"/>
			<path class="st1" d="M89.4,16.9c-0.3,0.3-0.5,0.7-0.6,1.1c-0.1,0.3-0.2,0.4-0.3,0.4c-0.1,0-0.2,0-0.4-0.1c-1.1-0.5-2.1-1-2.9-1.7
				v1c0,0.1,0,0.1,0,0.1c0,0-0.1,0-0.1,0l-1.7,0H81l-1.7,0c-0.1,0-0.1,0-0.1,0c0,0,0-0.1,0-0.1v-1.1c-0.8,0.7-1.8,1.2-2.8,1.8
				c-0.2,0.1-0.3,0.1-0.3,0.1c-0.1,0-0.2-0.1-0.3-0.4c-0.2-0.4-0.4-0.7-0.7-1c2.5-1.1,4.5-2.7,5.8-4.6c0.3-0.4,0.5-0.7,0.6-1.1
				c0.7,0.1,1.3,0.2,1.6,0.3c0.2,0.1,0.3,0.1,0.3,0.2c0,0.1,0,0.2-0.1,0.2c-0.1,0-0.1,0.1-0.1,0.1C84.6,14.4,86.7,15.9,89.4,16.9z
				 M79,25.3h-1.3c-0.1,0-0.1,0-0.1,0s0-0.1,0-0.1l0-2.7v-1.3l0-1.8c0-0.1,0-0.1,0-0.1s0.1,0,0.1,0l2.1,0h4.8l2.1,0
				c0.1,0,0.1,0,0.2,0c0,0,0,0.1,0,0.1l0,1.6v1.5l0,2.6c0,0.1,0,0.1,0,0.1c0,0-0.1,0-0.1,0h-1.3c-0.1,0-0.1,0-0.1,0s0-0.1,0-0.1
				v-0.5h-6v0.6c0,0.1,0,0.1,0,0.1C79.1,25.3,79,25.3,79,25.3z M79.2,20.6v2.6h6v-2.6H79.2z M79.4,16.3c0.2,0,0.8,0,1.6,0h2.3l1.5,0
				c-1-0.8-2-1.8-2.8-2.8C81.4,14.5,80.5,15.5,79.4,16.3z"/>
			<path class="st1" d="M98.9,15.9c0-0.5,0-1.2,0-2.1c0-0.6-0.1-1.2-0.2-1.7c0.9,0.1,1.5,0.2,1.8,0.3c0.2,0.1,0.3,0.1,0.3,0.3
				c0,0.1,0,0.2-0.1,0.3c-0.1,0.3-0.1,0.5-0.2,0.7c0,0.6,0,1.3-0.1,2.1c1-0.1,2-0.1,2.9-0.2c0.1,0,0.2,0.1,0.2,0.2
				c0,0.3,0,0.6,0,0.7c0,0.2,0,0.4,0,0.5c0,0.1,0,0.2,0,0.2c0,0-0.1,0-0.2,0c-0.9,0-1.9,0-3,0.1c0,1.1-0.1,1.8-0.2,2.3
				c-0.2,1.1-0.8,1.7-2,1.7c-0.4,0-0.7,0-0.9,0c-0.2,0-0.3-0.1-0.3-0.4c0-0.5-0.1-0.9-0.3-1.4c0.4,0.1,0.9,0.2,1.3,0.2
				c0.2,0,0.4,0,0.5-0.1s0.2-0.3,0.2-0.5c0.1-0.4,0.1-0.9,0.1-1.6c-1.2,0.1-2.5,0.2-3.7,0.4c0,0.9,0,1.5,0,1.8c0,0.6,0,1.2,0,1.6
				c0,0.7,0.2,1.1,0.5,1.2c0.3,0.2,0.9,0.2,1.7,0.2c1.2,0,2.5-0.1,3.9-0.3c0,0,0.1,0,0.1,0c0.1,0,0.2,0.1,0.2,0.2
				c0.1,0.3,0.1,0.7,0.1,1.3c0,0.2-0.1,0.2-0.2,0.3c-1,0.2-2.2,0.2-3.8,0.2c-1.6,0-2.7-0.2-3.2-0.6c-0.5-0.4-0.8-1-0.9-1.9
				c-0.1-0.8-0.1-2-0.1-3.7c-0.6,0.1-1.2,0.2-1.8,0.3c-0.3,0.1-0.5,0.2-0.7,0.2c-0.1,0-0.1,0-0.2,0c-0.1,0-0.2-0.1-0.2-0.2
				c-0.2-0.4-0.3-0.9-0.4-1.5c0.4,0,0.9-0.1,1.6-0.2c0.2,0,0.4-0.1,0.9-0.1s0.7-0.1,0.8-0.1v-1.6c0-0.6-0.1-1.1-0.2-1.6
				c0.7,0.1,1.3,0.1,1.8,0.3c0.2,0,0.3,0.1,0.3,0.3c0,0.1,0,0.2-0.1,0.3c-0.1,0.2-0.1,0.4-0.1,0.7c0,0.1,0,0.4,0,0.7
				c0,0.3,0,0.6,0,0.7C95.5,16.2,96.8,16.1,98.9,15.9z"/>
			<path class="st1" d="M106.8,13.9c0.6,0.1,1.6,0.1,2.9,0.1h5.4c0.4,0,0.7-0.1,0.8-0.2c0.1,0,0.1-0.1,0.2-0.1c0.1,0,0.2,0,0.3,0.1
				c0.4,0.3,0.8,0.6,1.1,1c0.1,0.1,0.1,0.2,0.1,0.3c0,0.1-0.1,0.3-0.2,0.4c-0.1,0.1-0.2,0.3-0.3,0.6c-0.8,1.9-1.8,3.6-2.9,4.9
				c-1.4,1.5-2.8,2.7-4.3,3.6c-0.1,0.1-0.3,0.1-0.4,0.1s-0.3-0.1-0.4-0.2c-0.3-0.3-0.8-0.6-1.4-0.8c1.2-0.6,2.1-1.2,2.9-1.8
				c0.7-0.5,1.3-1.2,2-1.9c1.1-1.3,2-2.7,2.5-4.3h-5.4c-0.6,0-1.4,0-2.5,0.1c-0.2,0-0.3-0.1-0.3-0.3
				C106.9,15.2,106.9,14.7,106.8,13.9z"/>
			<path class="st1" d="M127.2,19.9c-0.5,0.6-1,1.2-1.5,1.6c-0.8,0.7-1.5,1.2-2.3,1.7c-0.1,0.1-0.2,0.1-0.3,0.1
				c-0.1,0-0.2,0-0.2-0.1c-0.3-0.3-0.6-0.6-1.1-0.7c1-0.6,2-1.2,2.8-1.9c0.7-0.6,1.3-1.2,1.6-1.6h-1.7c-0.2,0-0.6,0-1,0
				c-0.4,0-0.7,0-0.9,0c0,0,0,0,0,0c-0.1,0-0.2-0.1-0.2-0.2c0-0.3-0.1-0.7-0.1-1.2c0.6,0,1.3,0.1,2.2,0.1h2.6l0-1
				c-0.1-0.7-0.1-1.1-0.2-1.5c0.6,0,1.2,0.1,1.6,0.1c0.2,0,0.2,0.1,0.2,0.2c0,0,0,0.1,0,0.2c-0.1,0.1-0.1,0.3-0.1,0.5
				c0,0.1,0,0.2,0,0.3l0.1,1.1h1l2.3,0c0,0,0,0,0,0c0.1,0,0.2,0.1,0.2,0.2c0,0.2,0,0.4,0,0.5c0,0.2,0,0.3,0,0.5
				c0,0.1-0.1,0.2-0.2,0.2c0,0,0,0,0,0l-2.2,0h-1l0.2,4.2c0,0,0,0.1,0,0.1c0,0.6-0.2,1-0.6,1.2c-0.5,0.3-1,0.4-1.7,0.4
				c-0.2,0-0.4-0.1-0.4-0.3c-0.2-0.4-0.5-0.8-1-1.1c0.8,0,1.4,0,1.8-0.1c0.2,0,0.3-0.2,0.3-0.4L127.2,19.9z"/>
			<path class="st1" d="M136.2,17.6c0.8,0.1,1.9,0.2,3.2,0.2h4.8c0.5,0,1.1,0,1.8,0c1,0,1.5,0,1.6,0c0,0,0,0,0.1,0
				c0.1,0,0.2,0.1,0.2,0.2c0,0.2,0,0.5,0,0.7c0,0.2,0,0.5,0,0.7c0,0.2-0.1,0.2-0.2,0.2h-0.1c-1.5,0-2.6,0-3.3,0H139l-2.2,0.2
				c-0.2,0-0.3-0.1-0.3-0.3C136.3,19,136.3,18.4,136.2,17.6z"/>
			<path class="st1" d="M155.9,12.4c1,0.3,1.7,0.6,2,0.8c0.1,0.1,0.2,0.2,0.2,0.2c0,0.1-0.1,0.2-0.2,0.3c-0.2,0.2-0.4,0.6-0.6,1.2
				c-1.2,3.2-2,5.4-2.6,6.7c2.2-0.2,4-0.4,5.3-0.6c-0.5-0.9-1.1-1.7-1.7-2.4l1.3-0.7c0.1,0,0.1,0,0.1,0c0.1,0,0.1,0,0.2,0.1
				c1.2,1.4,2.2,3,3,4.9c0,0.1,0.1,0.1,0.1,0.2c0,0.1-0.1,0.2-0.2,0.3c-0.3,0.2-0.7,0.4-1.1,0.6c-0.1,0-0.1,0-0.2,0
				c-0.1,0-0.2-0.1-0.2-0.2c-0.3-0.6-0.4-1-0.5-1.2c-1.8,0.3-4.2,0.6-7.1,0.9c-0.9,0.1-1.5,0.2-1.8,0.4c-0.1,0-0.1,0-0.2,0
				c-0.1,0-0.2-0.1-0.2-0.2c-0.1-0.2-0.3-0.9-0.5-1.9c0.3,0,0.6,0,0.9,0c0.2,0,0.5,0,0.9,0c1-2.5,1.9-5,2.6-7.4
				C155.8,13.6,155.9,12.9,155.9,12.4z"/>
		</g>
		<g>
			<g>
				<path class="st2" d="M38.4,22.6c0,1.3-1,2.3-2.3,2.3H22.6c-1.3,0-2.3-1-2.3-2.3v-8.4c0-1.3,1-2.3,2.3-2.3h13.4
					c1.3,0,2.3,1,2.3,2.3V22.6z"/>
				<path class="st3" d="M38.4,22.6c0,1.3-1,2.3-2.3,2.3H22.6c-1.3,0-2.3-1-2.3-2.3v-8.4c0-1.3,1-2.3,2.3-2.3h13.4
					c1.3,0,2.3,1,2.3,2.3V22.6z"/>
			</g>
			<polyline class="st3" points="21.2,12.5 29.3,18.4 37.5,12.5 			"/>
		</g>
	</g>
</g>
</svg>
